<svg xmlns="http://www.w3.org/2000/svg" xmlns:xlink="http://www.w3.org/1999/xlink" width="227.164" height="50" viewBox="0 0 227.164 50"><defs><style>.a{fill:url(#a);}.b{fill:url(#d);}</style><linearGradient id="a" x1="0.5" y1="1" x2="0.5" gradientUnits="objectBoundingBox"><stop offset="0" stop-color="#023859"/><stop offset="0.231" stop-color="#023b5c"/><stop offset="0.423" stop-color="#024566"/><stop offset="0.6" stop-color="#025677"/><stop offset="0.769" stop-color="#036e90"/><stop offset="0.931" stop-color="#038daf"/><stop offset="1" stop-color="#049dbf"/></linearGradient><linearGradient id="d" x1="0.555" y1="1.229" x2="0.343" y2="0.04" xlink:href="#a"/></defs><path class="a" d="M656.785,5614.338l18.352,27.072,19.145-27.072H709.16l-26.1,36.888c-1.768,2.378-4.268,4.573-8.17,4.573-3.78,0-6.28-2.012-8.048-4.573L641.3,5614.338Z" transform="translate(-586.49 -5613.668)"/><path class="a" d="M1104.513,5644.642l-8.109,10.486h-39.267v-40.791h47.254l-8.17,10.61h-26.4v4.877h32.315l-7.255,9.268h-25.06v5.549Z" transform="translate(-929.962 -5613.668)"/><path class="a" d="M1389.625,5650.425l-25-22.437v23.961h-11.463V5618.11c0-5.427,3.293-7.621,6.89-7.621a6.954,6.954,0,0,1,5.061,2.194l25,22.438v-23.962h11.524v33.779c0,5.427-3.293,7.683-6.951,7.683A6.78,6.78,0,0,1,1389.625,5650.425Z" transform="translate(-1174.472 -5610.489)"/><path class="b" d="M380.814,5655.809c-2.593-3.032-4.815-5.94-8.162-7.545,1.372.617,3.484.988,2.716.59-.535-.055-3.8-3.429-4.211-6.283l-.055-.055c.014,0,.027-.014.041-.014a9.225,9.225,0,0,0,5.624-5.391l-1,3.594c4.787-3.169,7.956-8.025,4.513-17.517-1.646-3.045-6.735-5.021-13.8-6.393l6.831.439c-4.966-3.292-18.779-4.554-29.986.425-11.879.645-12.647,2.688-16.968,7.956h34.993a4.685,4.685,0,1,1,0,9.369l-34.993-.041v20.864h12.62v-10.8h19.383l.027.027,1.852,4.952a3.106,3.106,0,0,1,.576-1.358c.494,3.964,3.923,7.462,7.874,10.892-.274-.864-.219-1.317,0-1.564,2.839,5.144,13.566,5.679,21.5,5.706A28.391,28.391,0,0,1,380.814,5655.809Zm-30.048-34.274a2.737,2.737,0,0,1-2.565-1.793l2.565-.939,2.565-.939a2.732,2.732,0,0,1-2.565,3.671Zm13.915,21.587c5.075,9.862,8.757,12.678,19.311,19.131C376.854,5660.671,366.8,5652.973,364.681,5643.122Z" transform="translate(-326.356 -5613.668)"/></svg>