<svg xmlns="http://www.w3.org/2000/svg" width="234.268" height="132" viewBox="0 0 234.268 132"><defs><style>.a,.q{fill:none;}.a,.e,.f,.g,.h,.j,.l,.m,.n,.o,.p,.q,.r{stroke:#368cb2;stroke-width:2px;}.b,.l{fill:#e9f8ff;}.c{fill:#368cb2;}.d{fill:#bae5f8;}.e{fill:#fff;}.f{fill:#d3df4c;}.g{fill:#cceef5;}.h,.k{fill:#f6fafb;}.h,.j,.m,.n,.o{stroke-linecap:round;stroke-linejoin:round;}.i{fill:#c3e8fa;}.j{fill:#41a9d8;}.l,.p,.q{stroke-miterlimit:10;}.m{fill:#ffa38f;}.n,.r{fill:#47b8eb;}.o{fill:#f0ca67;}.p{fill:#fbd260;}</style></defs><g transform="translate(1 1)"><g transform="translate(62.568 33.578)"><g transform="translate(105.703 9.32)"><path class="a" d="M789.271,266.55h0a9.524,9.524,0,0,1-9.523,9.524H741.893" transform="translate(-733.561 -266.55)"/><path class="a" d="M753.99,290.846H734.275a4.959,4.959,0,0,1-4.96-4.959h0a4.959,4.959,0,0,1,4.96-4.96H753.99" transform="translate(-729.315 -271.404)"/><path class="a" d="M746.688,328.855V309.139a4.96,4.96,0,0,1,4.96-4.959h0" transform="translate(-735.18 -279.253)"/><path class="a" d="M754.12,295.917H765a2.737,2.737,0,0,1,2.738,2.738h0A2.737,2.737,0,0,1,765,301.393H754.12" transform="translate(-737.689 -276.464)"/></g><g transform="translate(0 0)"><path class="a" d="M833.315,262h0a9.523,9.523,0,0,0-9.523-9.522H671.9" transform="translate(-671.902 -252.481)"/></g></g><g transform="translate(114.641 74.516)"><path class="b" d="M656.057,365.884a1.94,1.94,0,0,1-1.939-1.937V311.756h117.3v52.191a1.941,1.941,0,0,1-1.94,1.937Z" transform="translate(-653.456 -311.094)"/><path class="c" d="M770.42,312.081v51.528a1.276,1.276,0,0,1-1.278,1.275H655.719a1.275,1.275,0,0,1-1.276-1.275V312.081H770.42m1.325-1.325H653.118v52.853a2.6,2.6,0,0,0,2.6,2.6H769.142a2.6,2.6,0,0,0,2.6-2.6V310.756Z" transform="translate(-653.118 -310.756)"/><g transform="translate(3.176 9.345)"><path class="d" d="M658.3,328.457a.383.383,0,0,1-.384-.384v-2.825a.384.384,0,0,1,.384-.384h5.928a.383.383,0,0,1,.382.384v2.825a.382.382,0,0,1-.382.384Z" transform="translate(-657.913 -324.864)"/><path class="d" d="M.579,0H6.112a.58.58,0,0,1,.58.58V3.013a.58.58,0,0,1-.58.58H.579A.579.579,0,0,1,0,3.014V.579A.579.579,0,0,1,.579,0Z" transform="translate(8.123 0)"/><path class="d" d="M682.82,328.457a.381.381,0,0,1-.38-.384v-2.825a.383.383,0,0,1,.38-.384h5.926a.386.386,0,0,1,.386.384v2.825a.384.384,0,0,1-.386.384Z" transform="translate(-666.193 -324.864)"/><path class="d" d="M695.077,328.457a.382.382,0,0,1-.379-.384v-2.825a.383.383,0,0,1,.379-.384h5.929a.385.385,0,0,1,.385.384v2.825a.383.383,0,0,1-.385.384Z" transform="translate(-670.331 -324.864)"/><path class="d" d="M.579,0H6.116A.58.58,0,0,1,6.7.58V3.013a.58.58,0,0,1-.58.58H.579A.579.579,0,0,1,0,3.014V.579A.579.579,0,0,1,.579,0Z" transform="translate(32.486 0)"/><path class="d" d="M.577,0H6.112a.58.58,0,0,1,.58.58V3.013a.58.58,0,0,1-.58.58H.579A.579.579,0,0,1,0,3.014V.577A.577.577,0,0,1,.577,0Z" transform="translate(40.608 0)"/><path class="d" d="M.579,0H6.114a.58.58,0,0,1,.58.58V3.013a.58.58,0,0,1-.58.58H.577A.577.577,0,0,1,0,3.016V.579A.579.579,0,0,1,.579,0Z" transform="translate(48.729 0)"/><path class="d" d="M.579,0H6.115A.58.58,0,0,1,6.7.58V3.013a.58.58,0,0,1-.58.58H.579A.579.579,0,0,1,0,3.014V.579A.579.579,0,0,1,.579,0Z" transform="translate(56.85 0)"/><path class="d" d="M.58,0H6.113a.58.58,0,0,1,.58.58V3.013a.58.58,0,0,1-.58.58H.579A.579.579,0,0,1,0,3.014V.58A.58.58,0,0,1,.58,0Z" transform="translate(64.972 0)"/><path class="d" d="M768.636,328.457a.384.384,0,0,1-.381-.384v-2.825a.386.386,0,0,1,.381-.384h5.932a.386.386,0,0,1,.382.384v2.825a.384.384,0,0,1-.382.384Z" transform="translate(-695.162 -324.864)"/><path class="d" d="M.576,0H6.12A.576.576,0,0,1,6.7.576V3.013a.58.58,0,0,1-.58.58H.579A.579.579,0,0,1,0,3.014V.576A.576.576,0,0,1,.576,0Z" transform="translate(81.213 0)"/><path class="d" d="M.578,0H6.114a.58.58,0,0,1,.58.58V3.013a.58.58,0,0,1-.58.58H.577A.577.577,0,0,1,0,3.016V.578A.578.578,0,0,1,.578,0Z" transform="translate(89.335 0)"/><path class="d" d="M805.416,328.457a.382.382,0,0,1-.381-.384v-2.825a.384.384,0,0,1,.381-.384h5.931a.383.383,0,0,1,.38.384v2.825a.382.382,0,0,1-.38.384Z" transform="translate(-707.579 -324.864)"/><path class="d" d="M.579,0H6.115A.58.58,0,0,1,6.7.58V3.013a.58.58,0,0,1-.58.58H.579A.579.579,0,0,1,0,3.014V.579A.579.579,0,0,1,.579,0Z" transform="translate(105.577 0)"/><path class="d" d="M.58,0H5.741a.58.58,0,0,1,.58.58V5.552a.58.58,0,0,1-.58.58H.581A.581.581,0,0,1,0,5.552V.58A.58.58,0,0,1,.58,0Z" transform="translate(0 5.19)"/><path class="d" d="M.577,0H5.742a.577.577,0,0,1,.577.577V5.553a.579.579,0,0,1-.579.579H.579A.579.579,0,0,1,0,5.553V.577A.577.577,0,0,1,.577,0Z" transform="translate(7.855 5.19)"/><path class="d" d="M.578,0H5.74a.58.58,0,0,1,.58.58V5.553a.579.579,0,0,1-.579.579H.579A.579.579,0,0,1,0,5.553V.578A.578.578,0,0,1,.578,0Z" transform="translate(15.707 5.19)"/><path class="d" d="M.579,0h5.16a.58.58,0,0,1,.58.58V5.555a.577.577,0,0,1-.577.577H.578A.578.578,0,0,1,0,5.554V.579A.579.579,0,0,1,.579,0Z" transform="translate(23.56 5.19)"/><path class="d" d="M.579,0H5.74a.58.58,0,0,1,.58.58V5.552a.58.58,0,0,1-.58.58H.58A.58.58,0,0,1,0,5.552V.579A.579.579,0,0,1,.579,0Z" transform="translate(31.413 5.19)"/><path class="d" d="M.577,0H5.742a.577.577,0,0,1,.577.577V5.556a.577.577,0,0,1-.577.577H.578A.578.578,0,0,1,0,5.554V.577A.577.577,0,0,1,.577,0Z" transform="translate(39.266 5.19)"/><path class="d" d="M.576,0H5.744A.576.576,0,0,1,6.32.576V5.554a.579.579,0,0,1-.579.579H.578A.578.578,0,0,1,0,5.554V.576A.576.576,0,0,1,.576,0Z" transform="translate(47.119 5.19)"/><path class="d" d="M741.281,338.832a.383.383,0,0,1-.38-.383v-5.366a.384.384,0,0,1,.38-.384h5.554a.386.386,0,0,1,.385.384v5.366a.385.385,0,0,1-.385.383Z" transform="translate(-685.928 -327.509)"/><path class="d" d="M753.133,338.832a.383.383,0,0,1-.381-.383v-5.366a.385.385,0,0,1,.381-.384h5.558a.385.385,0,0,1,.381.384v5.366a.383.383,0,0,1-.381.383Z" transform="translate(-689.929 -327.509)"/><path class="d" d="M.581,0H5.739a.58.58,0,0,1,.58.58V5.556a.576.576,0,0,1-.576.576H.578A.578.578,0,0,1,0,5.554V.581A.581.581,0,0,1,.581,0Z" transform="translate(70.676 5.19)"/><path class="d" d="M.578,0H5.739a.58.58,0,0,1,.58.58V5.553a.58.58,0,0,1-.58.58H.578A.578.578,0,0,1,0,5.554V.578A.578.578,0,0,1,.578,0Z" transform="translate(78.53 5.19)"/><path class="d" d="M.576,0H5.742a.58.58,0,0,1,.58.58V5.552a.58.58,0,0,1-.58.58H.578A.578.578,0,0,1,0,5.554V.576A.576.576,0,0,1,.576,0Z" transform="translate(86.381 5.19)"/><path class="d" d="M.577,0H5.738a.58.58,0,0,1,.58.58V5.556a.577.577,0,0,1-.577.577H.578A.578.578,0,0,1,0,5.554V.577A.577.577,0,0,1,.577,0Z" transform="translate(94.235 5.19)"/><path class="d" d="M.578,0H9.6a.58.58,0,0,1,.58.58V5.552a.58.58,0,0,1-.58.58H.578A.578.578,0,0,1,0,5.554V.578A.578.578,0,0,1,.578,0Z" transform="translate(102.088 5.19)"/><path class="d" d="M.58,0H9.848a.577.577,0,0,1,.577.577V5.551a.58.58,0,0,1-.58.58H.578A.578.578,0,0,1,0,5.553V.58A.58.58,0,0,1,.58,0Z" transform="translate(0 12.697)"/><path class="d" d="M.581,0H5.742a.577.577,0,0,1,.577.577V5.555a.576.576,0,0,1-.576.576H.578A.578.578,0,0,1,0,5.553V.581A.581.581,0,0,1,.581,0Z" transform="translate(11.803 12.697)"/><path class="d" d="M687.949,350.163a.385.385,0,0,1-.384-.383v-5.366a.384.384,0,0,1,.384-.382H693.5a.385.385,0,0,1,.387.382v5.366a.386.386,0,0,1-.387.383Z" transform="translate(-667.923 -331.335)"/><path class="d" d="M.58,0H5.74a.577.577,0,0,1,.577.577V5.554a.577.577,0,0,1-.577.577H.575A.575.575,0,0,1,0,5.557V.58A.58.58,0,0,1,.58,0Z" transform="translate(27.484 12.697)"/><path class="d" d="M.576,0H5.739a.577.577,0,0,1,.577.577v4.98a.574.574,0,0,1-.574.574H.578A.578.578,0,0,1,0,5.553V.576A.576.576,0,0,1,.576,0Z" transform="translate(35.323 12.697)"/><path class="d" d="M.577,0H5.739a.577.577,0,0,1,.577.577V5.555a.576.576,0,0,1-.576.576H.576A.576.576,0,0,1,0,5.555V.577A.577.577,0,0,1,.577,0Z" transform="translate(43.164 12.697)"/><path class="d" d="M.581,0H5.746a.577.577,0,0,1,.577.577V5.552a.579.579,0,0,1-.579.579H.578A.578.578,0,0,1,0,5.553V.581A.581.581,0,0,1,.581,0Z" transform="translate(51 12.697)"/><path class="d" d="M.578,0H5.744a.577.577,0,0,1,.577.577V5.555a.576.576,0,0,1-.576.576H.578A.578.578,0,0,1,0,5.553V.578A.578.578,0,0,1,.578,0Z" transform="translate(58.84 12.697)"/><path class="d" d="M.576,0H5.74a.577.577,0,0,1,.577.577V5.555a.576.576,0,0,1-.576.576H.578A.578.578,0,0,1,0,5.553V.576A.576.576,0,0,1,.576,0Z" transform="translate(66.682 12.697)"/><path class="d" d="M.58,0H5.743A.577.577,0,0,1,6.32.577V5.552a.579.579,0,0,1-.579.579H.578A.578.578,0,0,1,0,5.553V.58A.58.58,0,0,1,.58,0Z" transform="translate(74.52 12.697)"/><path class="d" d="M.58,0H5.744a.577.577,0,0,1,.577.577V5.552a.579.579,0,0,1-.579.579H.578A.578.578,0,0,1,0,5.553V.58A.58.58,0,0,1,.58,0Z" transform="translate(90.196 12.697)"/><path class="d" d="M.578,0h5.16a.577.577,0,0,1,.577.577V5.556a.575.575,0,0,1-.575.575H.578A.578.578,0,0,1,0,5.553V.578A.578.578,0,0,1,.578,0Z" transform="translate(82.361 12.697)"/><path class="d" d="M806.3,350.163a.383.383,0,0,1-.382-.383v-5.366a.383.383,0,0,1,.382-.382h5.552a.384.384,0,0,1,.385.382v5.366a.385.385,0,0,1-.385.383Z" transform="translate(-707.876 -331.335)"/><path class="d" d="M.58,0H11.747a.58.58,0,0,1,.58.58V5.552a.58.58,0,0,1-.58.58H.576A.576.576,0,0,1,0,5.555V.58A.58.58,0,0,1,.58,0Z" transform="translate(0 20.502)"/><path class="d" d="M.576,0H5.744A.576.576,0,0,1,6.32.576V5.552a.579.579,0,0,1-.579.579H.576A.576.576,0,0,1,0,5.555V.576A.576.576,0,0,1,.576,0Z" transform="translate(14.006 20.502)"/><path class="d" d="M691.234,361.945a.381.381,0,0,1-.382-.382V356.2a.383.383,0,0,1,.382-.384h5.552a.382.382,0,0,1,.381.384v5.366a.38.38,0,0,1-.381.382Z" transform="translate(-669.033 -335.312)"/><path class="d" d="M703.027,361.945a.381.381,0,0,1-.382-.382V356.2a.383.383,0,0,1,.382-.384h5.552a.384.384,0,0,1,.385.384v5.366a.382.382,0,0,1-.385.382Z" transform="translate(-673.014 -335.312)"/><path class="d" d="M714.818,361.945a.381.381,0,0,1-.381-.382V356.2a.383.383,0,0,1,.381-.384h5.554a.385.385,0,0,1,.384.384v5.366a.383.383,0,0,1-.384.382Z" transform="translate(-676.994 -335.312)"/><path class="d" d="M.577,0H5.742a.577.577,0,0,1,.577.577V5.551a.58.58,0,0,1-.58.58H.576A.576.576,0,0,1,0,5.555V.577A.577.577,0,0,1,.577,0Z" transform="translate(45.254 20.502)"/><path class="d" d="M.577,0H5.739a.58.58,0,0,1,.58.58V5.554a.577.577,0,0,1-.577.577H.577A.577.577,0,0,1,0,5.554V.577A.577.577,0,0,1,.577,0Z" transform="translate(53.067 20.502)"/><path class="d" d="M.576,0H5.741a.58.58,0,0,1,.58.58V5.553a.578.578,0,0,1-.578.578H.578A.578.578,0,0,1,0,5.553V.576A.576.576,0,0,1,.576,0Z" transform="translate(60.878 20.502)"/><path class="d" d="M.577,0H5.741a.577.577,0,0,1,.577.577V5.555a.576.576,0,0,1-.576.576H.576A.576.576,0,0,1,0,5.555V.577A.577.577,0,0,1,.577,0Z" transform="translate(68.693 20.502)"/><path class="d" d="M773.786,361.945a.382.382,0,0,1-.382-.382V356.2a.384.384,0,0,1,.382-.384h5.552a.385.385,0,0,1,.385.384v5.366a.382.382,0,0,1-.385.382Z" transform="translate(-696.901 -335.312)"/><path class="d" d="M.577,0h5.16a.58.58,0,0,1,.58.58V5.551a.58.58,0,0,1-.58.58H.579A.579.579,0,0,1,0,5.553V.577A.577.577,0,0,1,.577,0Z" transform="translate(84.316 20.502)"/><path class="d" d="M.578,0H5.741a.578.578,0,0,1,.578.578V5.556a.576.576,0,0,1-.576.576H.576A.576.576,0,0,1,0,5.555V.578A.578.578,0,0,1,.578,0Z" transform="translate(92.127 20.502)"/><path class="d" d="M809.166,361.945a.382.382,0,0,1-.384-.382V356.2a.384.384,0,0,1,.384-.384h5.557a.383.383,0,0,1,.38.384v5.366a.381.381,0,0,1-.38.382Z" transform="translate(-708.843 -335.312)"/><path class="d" d="M820.254,357.968a.382.382,0,0,1-.383-.382v-6.53a.9.9,0,0,0-.895-.893h-.824a.386.386,0,0,1-.386-.383v-5.366a.385.385,0,0,1,.386-.382h5.612a.383.383,0,0,1,.384.382v13.172a.382.382,0,0,1-.384.382Z" transform="translate(-711.877 -331.335)"/><path class="d" d="M.58,0H7.444A.576.576,0,0,1,8.02.576V5.554a.576.576,0,0,1-.576.576H.577A.577.577,0,0,1,0,5.553V.58A.58.58,0,0,1,.58,0Z" transform="translate(0 28.309)"/><path class="d" d="M.58,0H5.744A.576.576,0,0,1,6.32.576V5.551a.58.58,0,0,1-.58.58H.577A.577.577,0,0,1,0,5.553V.58A.58.58,0,0,1,.58,0Z" transform="translate(9.901 28.309)"/><path class="d" d="M.578,0H5.743a.576.576,0,0,1,.576.576V5.551a.58.58,0,0,1-.58.58H.577A.577.577,0,0,1,0,5.553V.578A.578.578,0,0,1,.578,0Z" transform="translate(17.735 28.309)"/><path class="d" d="M.577,0H5.744a.576.576,0,0,1,.576.576V5.551a.58.58,0,0,1-.58.58H.577A.577.577,0,0,1,0,5.553V.577A.577.577,0,0,1,.577,0Z" transform="translate(25.568 28.309)"/><path class="d" d="M.577,0H5.742a.576.576,0,0,1,.576.576V5.553a.578.578,0,0,1-.578.578H.577A.577.577,0,0,1,0,5.553V.577A.577.577,0,0,1,.577,0Z" transform="translate(33.402 28.309)"/><path class="d" d="M.577,0H5.742a.576.576,0,0,1,.576.576V5.554a.577.577,0,0,1-.577.577H.577A.577.577,0,0,1,0,5.554V.577A.577.577,0,0,1,.577,0Z" transform="translate(41.235 28.309)"/><path class="d" d="M.576,0H5.743a.576.576,0,0,1,.576.576V5.551a.579.579,0,0,1-.579.579H.577A.577.577,0,0,1,0,5.553V.576A.576.576,0,0,1,.576,0Z" transform="translate(49.069 28.309)"/><path class="d" d="M.578,0H5.743a.576.576,0,0,1,.576.576V5.553a.577.577,0,0,1-.577.577H.577A.577.577,0,0,1,0,5.553V.578A.578.578,0,0,1,.578,0Z" transform="translate(56.899 28.309)"/><path class="d" d="M.577,0H5.74a.576.576,0,0,1,.576.576V5.553a.578.578,0,0,1-.578.578H.577A.577.577,0,0,1,0,5.553V.577A.577.577,0,0,1,.577,0Z" transform="translate(64.735 28.309)"/><path class="d" d="M.579,0H5.745a.576.576,0,0,1,.576.576V5.553a.578.578,0,0,1-.578.578H.577A.577.577,0,0,1,0,5.553V.579A.579.579,0,0,1,.579,0Z" transform="translate(72.565 28.309)"/><path class="d" d="M.578,0H5.745a.576.576,0,0,1,.576.576V5.553a.577.577,0,0,1-.577.577H.577A.577.577,0,0,1,0,5.553V.578A.578.578,0,0,1,.578,0Z" transform="translate(80.397 28.309)"/><path class="d" d="M.577,0H5.743A.576.576,0,0,1,6.32.576V5.555a.575.575,0,0,1-.575.575H.577A.577.577,0,0,1,0,5.553V.577A.577.577,0,0,1,.577,0Z" transform="translate(88.231 28.309)"/><path class="d" d="M.577,0H15.512a.576.576,0,0,1,.576.576V5.551a.58.58,0,0,1-.58.58H.577A.577.577,0,0,1,0,5.553V.577A.577.577,0,0,1,.577,0Z" transform="translate(96.184 28.309)"/><path class="d" d="M.579,0H5.74a.581.581,0,0,1,.581.581V6.253a.581.581,0,0,1-.581.581H.579A.579.579,0,0,1,0,6.255V.579A.579.579,0,0,1,.579,0Z" transform="translate(0 36.012)"/><path class="d" d="M670.153,386.063a.383.383,0,0,1-.382-.384v-6.066a.384.384,0,0,1,.382-.385h5.553a.385.385,0,0,1,.384.385v6.066a.385.385,0,0,1-.384.384Z" transform="translate(-661.916 -343.216)"/><path class="d" d="M.581,0H5.739A.581.581,0,0,1,6.32.581V6.255a.579.579,0,0,1-.579.579H.579A.579.579,0,0,1,0,6.255V.581A.581.581,0,0,1,.581,0Z" transform="translate(15.707 36.012)"/><path class="d" d="M.579,0h7.26A.581.581,0,0,1,8.42.581V6.256a.579.579,0,0,1-.579.579H.579A.579.579,0,0,1,0,6.256V.579A.579.579,0,0,1,.579,0Z" transform="translate(23.56 36.012)"/><path class="d" d="M.579,0h7.26A.581.581,0,0,1,8.42.581V6.257a.578.578,0,0,1-.578.578H.579A.579.579,0,0,1,0,6.255V.579A.579.579,0,0,1,.579,0Z" transform="translate(72.495 36.012)"/><path class="d" d="M708.812,386.063a.384.384,0,0,1-.384-.384v-6.066a.384.384,0,0,1,.384-.385h36.877a.384.384,0,0,1,.382.385v6.066a.384.384,0,0,1-.382.384Z" transform="translate(-674.966 -343.216)"/><path class="d" d="M.579,0H5.74a.581.581,0,0,1,.581.581V6.257a.577.577,0,0,1-.577.577H.579A.579.579,0,0,1,0,6.255V.579A.579.579,0,0,1,.579,0Z" transform="translate(82.333 36.012)"/><path class="d" d="M794.512,387.9a.384.384,0,0,1-.382-.384v-2.465a.383.383,0,0,1,.382-.382h5.556a.382.382,0,0,1,.38.382v2.465a.383.383,0,0,1-.38.384Z" transform="translate(-703.897 -345.053)"/><path class="d" d="M.577,0H5.739A.581.581,0,0,1,6.32.581V6.255a.579.579,0,0,1-.579.579H.579A.579.579,0,0,1,0,6.255V.577A.577.577,0,0,1,.577,0Z" transform="translate(98.138 36.012)"/><path class="d" d="M.578,0H5.743a.578.578,0,0,1,.578.578V2.65a.58.58,0,0,1-.58.58H.579A.579.579,0,0,1,0,2.651V.578A.578.578,0,0,1,.578,0Z" transform="translate(105.952 39.617)"/></g></g><g transform="translate(99.309)"><path class="e" d="M805.563,215.08c2.435.767,4.322,4.338,4.61,8.8l.58,0,0-.057.032-9.617a.921.921,0,1,1,.548.005l-.034,9.612v.06h.582c.319-4.458,2.234-8.017,4.671-8.766a32.805,32.805,0,0,1-.954-9.907,28.163,28.163,0,0,1-4.507.329,29.087,29.087,0,0,1-4.5-.358,32.833,32.833,0,0,1-1.025,9.9Z" transform="translate(-805.563 -137.637)"/><path class="f" d="M815.658,109.637c.027-8.547-7.677-8.571-7.706-.025-.245,14.367-.488,46.783-.732,61.148l8.868.031C815.943,156.258,815.8,123.888,815.658,109.637Z" transform="translate(-806.122 -103.215)"/><rect class="g" width="1.347" height="9.177" transform="translate(0.937 68.881) rotate(-89.786)"/></g><g transform="translate(0 0.805)"><path class="h" d="M735.86,214.065V125.6l-21.169-21.172H655.645V214.065Z" transform="translate(-655.645 -104.431)"/><g transform="translate(56.948)"><path class="i" d="M762.783,136.393H741.614l21.169,21.166Z" transform="translate(-741.614 -115.22)"/><path class="j" d="M744.782,125.6h21.169l-21.169-21.172Z" transform="translate(-742.683 -104.431)"/></g></g><g transform="translate(42.272 65.365)"><g transform="translate(10.72 10.616)"><path class="b" d="M737.2,219.476l21.835,7.094-7.136,3.666,4.919,4.918-3.938,3.945-4.921-4.923-3.665,7.135Z" transform="translate(-736.169 -218.443)"/><path class="c" d="M737.707,219.981l9.541,3.1,9.543,3.1-6.528,3.354,5.094,5.092-3,3.008-5.094-5.1-3.353,6.528-3.1-9.544-3.1-9.541m-2.064-2.064.8,2.473,3.1,9.541,3.1,9.544.984,3.028,1.455-2.832,2.522-4.911,3.81,3.812.937.938.937-.939,3-3.007.935-.937-.936-.936-3.809-3.808,4.911-2.522,2.833-1.455-3.029-.984-9.543-3.1-9.54-3.1-2.474-.8Z" transform="translate(-735.643 -217.917)"/><path class="k" d="M748.3,224.134l-9.541-3.1.1.317L754.8,237.292l1.608-1.612-5.094-5.092,6.528-3.354Z" transform="translate(-736.695 -218.969)"/></g><line class="l" y1="6.616" transform="translate(8.342)"/><line class="l" y1="6.616" transform="translate(8.342 12.648)"/><line class="l" x1="5.73" y1="3.308" transform="translate(0 4.816)"/><line class="l" y1="3.308" x2="5.729" transform="translate(10.954 4.816)"/><line class="l" y1="3.308" x2="5.729" transform="translate(0.001 11.14)"/></g><g transform="translate(9.759 15.732)"><g transform="translate(0.067 12.055)"><path class="m" d="M677.362,296.283v-3.936h-6.884v3.936a.749.749,0,0,0,.755.748h5.372A.751.751,0,0,0,677.362,296.283Z" transform="translate(-670.478 -194.849)"/><rect class="n" width="6.884" height="97.499" transform="translate(0)"/></g><path class="h" d="M673.922,139.812a9.058,9.058,0,0,0,3.438-.674l-3.441-12.174-3.436,12.174A9.065,9.065,0,0,0,673.922,139.812Z" transform="translate(-670.412 -126.964)"/><g transform="translate(0 101.663)"><rect class="o" width="6.979" height="8.084"/></g><path class="o" d="M673.982,130.944a9.992,9.992,0,0,0,1.058.072,8.1,8.1,0,0,0,1.184-.092l-1.123-3.959Z" transform="translate(-671.594 -126.964)"/></g><g transform="translate(21.57 13.343)"><path class="p" d="M702.885,123.357l-14.678,0V240.014h14.678Z" transform="translate(-688.207 -123.357)"/><g transform="translate(6.841 3.318)"><line class="q" x1="8.191" y1="0.003" transform="translate(0)"/><line class="q" x1="5.244" transform="translate(2.947 2.212)"/><line class="q" x1="5.244" transform="translate(2.947 4.424)"/><line class="q" x1="5.244" transform="translate(2.947 6.637)"/><line class="q" x1="5.244" transform="translate(2.947 8.849)"/><line class="q" x1="8.191" transform="translate(0 11.063)"/><line class="q" x1="5.242" transform="translate(2.947 13.269)"/><line class="q" x1="5.244" transform="translate(2.947 15.482)"/><line class="q" x1="5.244" transform="translate(2.947 17.693)"/><line class="q" x1="5.244" transform="translate(2.947 19.907)"/><line class="q" x1="8.191" transform="translate(0 22.117)"/><line class="q" x1="5.244" transform="translate(2.947 24.329)"/><line class="q" x1="5.244" transform="translate(2.947 26.541)"/><line class="q" x1="5.242" transform="translate(2.947 28.755)"/><line class="q" x1="5.244" transform="translate(2.947 30.963)"/><line class="q" x1="8.191" transform="translate(0 33.175)"/><line class="q" x1="5.244" transform="translate(2.947 35.386)"/><line class="q" x1="5.244" transform="translate(2.947 37.598)"/><line class="q" x1="5.244" transform="translate(2.947 39.811)"/><line class="q" x1="5.244" transform="translate(2.947 42.023)"/><line class="q" x1="8.191" y2="0.002" transform="translate(0 44.23)"/><line class="q" x1="5.244" transform="translate(2.947 46.441)"/><line class="q" x1="5.244" transform="translate(2.947 48.659)"/><line class="q" x1="5.244" transform="translate(2.947 50.869)"/><line class="q" x1="5.244" y1="0.003" transform="translate(2.947 53.078)"/><line class="q" x1="8.191" transform="translate(0 55.293)"/><line class="q" x1="5.244" transform="translate(2.947 57.502)"/><line class="q" x1="5.242" transform="translate(2.947 59.712)"/><line class="q" x1="5.244" transform="translate(2.947 61.924)"/><line class="q" x1="5.244" transform="translate(2.947 64.136)"/><line class="q" x1="8.191" transform="translate(0 66.349)"/><line class="q" x1="5.244" transform="translate(2.947 68.562)"/><line class="q" x1="5.244" transform="translate(2.947 70.772)"/><line class="q" x1="5.244" transform="translate(2.947 72.982)"/><line class="q" x1="5.244" transform="translate(2.947 75.196)"/><line class="q" x1="8.189" y2="0.001" transform="translate(0 77.405)"/><line class="q" x1="5.244" transform="translate(2.947 79.619)"/><line class="q" x1="5.244" transform="translate(2.947 81.832)"/><line class="q" x1="5.244" transform="translate(2.947 84.041)"/><line class="q" x1="5.244" transform="translate(2.947 86.253)"/><line class="q" x1="8.191" transform="translate(0 88.469)"/><line class="q" x1="5.244" y2="0.002" transform="translate(2.947 90.676)"/><line class="q" x1="5.244" y1="0.004" transform="translate(2.947 92.888)"/><line class="q" x1="5.244" transform="translate(2.947 95.099)"/><line class="q" x1="5.244" y2="0.002" transform="translate(2.947 97.312)"/><line class="q" x1="8.191" transform="translate(0 99.522)"/><line class="q" x1="5.244" transform="translate(2.947 101.737)"/><line class="q" x1="5.244" y2="0.003" transform="translate(2.947 103.942)"/><line class="q" x1="5.242" transform="translate(2.947 106.157)"/><line class="q" x1="5.244" transform="translate(2.947 108.368)"/><line class="q" x1="8.191" transform="translate(0 110.581)"/></g></g><line class="a" y2="31.99" transform="translate(105.182 90.913)"/><g transform="translate(102.95 86.821)"><rect class="a" width="4.464" height="4.464" transform="translate(0)"/><rect class="a" width="4.464" height="4.463" transform="translate(0 35.711)"/></g><rect class="r" width="4.464" height="4.464" transform="translate(102.95 104.677)"/></g></svg>