<svg xmlns="http://www.w3.org/2000/svg" width="197.431" height="132" viewBox="0 0 197.431 132"><defs><style>.a{fill:#41a9d8;}.a,.b,.c,.n{stroke:#368cb2;stroke-width:2px;}.a,.b{stroke-miterlimit:10;}.b,.c,.e{fill:#f6fafb;}.b,.c,.n{stroke-linecap:round;}.c,.n{stroke-linejoin:round;}.d{fill:#c3e8fa;}.f{fill:#368cb2;}.g{fill:#f0c752;}.h{fill:#47b8eb;}.i{fill:#bae5f8;}.j{fill:#81cdee;}.k{fill:#fff;}.l{fill:#88d8fb;}.m{fill:#ffa38f;}.n{fill:none;}</style></defs><g transform="translate(-64.386 -111.337)"><g transform="translate(65.386 112.337)"><path class="a" d="M224.156,202.07v-85.7a4.208,4.208,0,0,0-4.35-4.032H69.735a4.2,4.2,0,0,0-4.349,4.032v85.7Z" transform="translate(-65.386 -112.337)"/><path class="b" d="M65.416,294.252v13.309a4.642,4.642,0,0,0,4.645,4.638H219.51a4.641,4.641,0,0,0,4.64-4.638V294.252Z" transform="translate(-65.4 -203.62)"/><path class="c" d="M218.031,347.857s-1.155-.567-2.485-1.067c-1.415-.533-3.118-1.2-4.121-1.68-1.753-.845-1.905-1.4-2.561-4.271-.716-3.143-1.393-9.772-1.661-12.664H173.958c-.275,2.891-.948,9.521-1.664,12.664-.655,2.872-.8,3.426-2.562,4.271-1,.478-2.669,1.133-4.076,1.666h0c-1.346.5-2.447.9-2.447.9s-1.073.593.645.678H217.3C218.914,348.382,218.031,347.857,218.031,347.857Z" transform="translate(-111.193 -220.777)"/><path class="d" d="M216.955,333.659c-.14-1.306-.257-2.478-.334-3.317H185.057c-.077.838-.191,2.01-.332,3.317Z" transform="translate(-121.457 -221.795)"/><g transform="translate(6.315 6.396)"><rect class="e" width="145.071" height="82.154" transform="translate(0.53 0.53)"/><path class="f" d="M222.369,125.462v81.093H78.358V125.462H222.369m1.06-1.06H77.3v83.214H223.43V124.4Z" transform="translate(-77.298 -124.402)"/></g><g transform="translate(7.465 7.485)"><g transform="translate(3.173 19.961)"><rect class="g" width="69.676" height="39.075"/></g><g transform="translate(3.17 59.297)"><rect class="d" width="69.677" height="19.116"/></g><g transform="translate(74.266 19.961)"><rect class="h" width="66.976" height="18.364"/></g><path class="i" d="M221.968,126.455H80.9a1.4,1.4,0,0,0-1.438,1.347v8.432H223.406V127.8A1.4,1.4,0,0,0,221.968,126.455Z" transform="translate(-79.466 -126.455)"/><g transform="translate(1.312 1.759)"><path class="j" d="M83.684,130.646a.872.872,0,1,1-.873-.873A.876.876,0,0,1,83.684,130.646Z" transform="translate(-81.94 -129.773)"/><path class="j" d="M88.514,130.646a.872.872,0,1,1-.872-.873A.874.874,0,0,1,88.514,130.646Z" transform="translate(-84.209 -129.773)"/><path class="j" d="M93.342,130.646a.872.872,0,1,1-.873-.873A.874.874,0,0,1,93.342,130.646Z" transform="translate(-86.478 -129.773)"/></g><rect class="k" width="112.505" height="3.784" transform="translate(11.858 4.726)"/><g transform="translate(1.13 5.084)"><path class="j" d="M82.968,138.788,81.6,137.416l1.371-1.372.508.51-.86.862.86.863Z" transform="translate(-81.597 -136.044)"/><g transform="translate(0.812 1.011)"><rect class="j" width="2.535" height="0.721"/></g></g><g transform="translate(6.334 5.084)"><g transform="translate(1.466)"><path class="j" d="M94.689,138.788l-.509-.509.861-.863-.861-.862.509-.51,1.371,1.372Z" transform="translate(-94.18 -136.044)"/></g><g transform="translate(0 1.011)"><rect class="j" width="2.532" height="0.721"/></g></g><rect class="h" width="11.053" height="3.377" transform="translate(125.832 4.726)"/><g transform="translate(3.173 12.163)"><g transform="translate(14.468 2.023)"><rect class="h" width="11.178" height="1.212"/></g><g transform="translate(27.292 2.023)"><rect class="h" width="11.179" height="1.212"/></g><g transform="translate(40.116 2.023)"><rect class="h" width="11.179" height="1.212"/></g><g transform="translate(52.94 2.023)"><rect class="h" width="11.178" height="1.212"/></g><g transform="translate(65.764 2.023)"><rect class="h" width="11.178" height="1.212"/></g><g transform="translate(119.446)"><rect class="l" width="18.05" height="0.907"/></g><g transform="translate(123.27 2.175)"><rect class="l" width="14.226" height="0.909"/></g><g transform="translate(0 1.013)"><rect class="g" width="11.815" height="3.232"/></g></g><g transform="translate(5.973 61.969)"><g transform="translate(0.474)"><rect class="h" width="25.211" height="1.255"/></g><g transform="translate(0.474 2.691)"><rect class="l" width="61.169" height="0.943"/></g><g transform="translate(0.214 4.892)"><rect class="l" width="53.412" height="0.942"/></g><g transform="translate(0 8.604)"><rect class="h" width="12.262" height="3.351"/></g><g transform="translate(2.774 9.807)"><rect class="k" width="6.715" height="0.943"/></g></g><g transform="translate(77.004 23.68)"><rect class="k" width="25.685" height="1.256"/><g transform="translate(0 2.691)"><rect class="i" width="61.643" height="0.942"/></g><g transform="translate(0 4.89)"><rect class="i" width="53.626" height="0.944"/></g><g transform="translate(0 8.603)"><rect class="k" width="12.262" height="3.353"/></g><g transform="translate(2.774 9.807)"><rect class="h" width="6.713" height="0.944"/></g></g><g transform="translate(74.202 59.297)"><rect class="d" width="32.785" height="19.116"/></g><g transform="translate(77.004 61.969)"><g transform="translate(0.306)"><rect class="h" width="18.806" height="1.255"/></g><g transform="translate(0.306 2.691)"><rect class="l" width="21.453" height="0.943"/></g><g transform="translate(0.216 4.892)"><rect class="l" width="18.731" height="0.942"/></g><g transform="translate(0 8.604)"><rect class="h" width="12.264" height="3.351"/></g><g transform="translate(2.774 9.807)"><rect class="k" width="6.713" height="0.943"/></g></g><g transform="translate(74.202 39.917)"><rect class="m" width="32.785" height="19.116"/></g><g transform="translate(108.525 39.917)"><g transform="translate(0 19.38)"><rect class="d" width="32.783" height="19.116"/></g><g transform="translate(2.803 22.053)"><g transform="translate(0.306)"><rect class="h" width="18.804" height="1.255"/></g><g transform="translate(0.306 2.691)"><rect class="l" width="21.453" height="0.943"/></g><g transform="translate(0.215 4.892)"><rect class="l" width="18.731" height="0.942"/></g><g transform="translate(0 8.604)"><rect class="h" width="12.261" height="3.351"/></g><g transform="translate(2.774 9.807)"><rect class="k" width="6.713" height="0.943"/></g></g><rect class="j" width="32.783" height="19.116"/></g></g><g transform="translate(172.454 83.712)"><path class="a" d="M411.147,295.534h-.537v-1.765h.537Z" transform="translate(-410.61 -288.323)"/><path class="a" d="M411.147,303.192h-.537v-2.981h.537Z" transform="translate(-410.61 -291.35)"/><path class="a" d="M411.147,309.966h-.537v-2.838h.537Z" transform="translate(-410.61 -294.6)"/><g transform="translate(0.128)"><path class="a" d="M433.7,326.918a2.873,2.873,0,0,1-2.864,2.867H413.718a2.872,2.872,0,0,1-2.866-2.867V286.36a2.871,2.871,0,0,1,2.866-2.863h17.118a2.872,2.872,0,0,1,2.864,2.863Z" transform="translate(-410.852 -283.497)"/></g><g transform="translate(8.061 1.241)"><path class="f" d="M426.586,288.49a.386.386,0,1,1-.388-.385A.387.387,0,0,1,426.586,288.49Z" transform="translate(-425.815 -286.903)"/><path class="f" d="M432.356,286.087a.249.249,0,1,1-.25-.249A.249.249,0,0,1,432.356,286.087Z" transform="translate(-428.655 -285.838)"/><path class="f" d="M432.536,288.6a.185.185,0,0,1-.181.182h-2.647a.183.183,0,0,1-.185-.182h0a.184.184,0,0,1,.185-.184h2.647a.187.187,0,0,1,.181.184Z" transform="translate(-427.557 -287.05)"/></g><path class="f" d="M432.643,365.286a.328.328,0,0,1-.33.329H429.89a.329.329,0,0,1-.332-.329v-.661a.331.331,0,0,1,.332-.333h2.424a.331.331,0,0,1,.33.333Z" transform="translate(-419.513 -321.458)"/><g transform="translate(0.443 4.194)"><rect class="e" width="21.117" height="36.656" transform="translate(0.53 0.53)"/><path class="f" d="M432.563,292.468v35.6H412.506v-35.6h20.057m1.06-1.06H411.446v37.716h22.177V291.408Z" transform="translate(-411.446 -291.408)"/></g><g transform="translate(2.24 11.847)"><rect class="g" width="18.495" height="12.527"/></g><g transform="translate(2.24 24.446)"><rect class="d" width="18.495" height="15.675"/></g><g transform="translate(2.24 6.637)"><rect class="g" width="12.11" height="3.232"/></g><g transform="translate(17.172 6.637)"><rect class="h" width="3.563" height="3.232"/></g><g transform="translate(3.96 27.534)"><rect class="h" width="10.698" height="1.255"/><g transform="translate(0 2.69)"><rect class="l" width="14.747" height="0.944"/></g><g transform="translate(0 4.889)"><rect class="l" width="15.054" height="0.944"/></g><g transform="translate(0 8.603)"><rect class="h" width="12.263" height="3.353"/></g><g transform="translate(2.775 9.808)"><rect class="k" width="6.714" height="0.943"/></g></g></g><g transform="translate(123.913 65.397)"><path class="a" d="M321.127,313.18a2.08,2.08,0,0,1-2.078-2.079V251.03a2.08,2.08,0,0,1,2.078-2.078h41.208a2.081,2.081,0,0,1,2.084,2.078V311.1a2.081,2.081,0,0,1-2.084,2.079Z" transform="translate(-319.049 -248.952)"/><g transform="translate(22.267 2.112)"><path class="f" d="M361.881,253.352a.415.415,0,1,1-.417-.416A.412.412,0,0,1,361.881,253.352Z" transform="translate(-361.05 -252.936)"/></g><path class="f" d="M362.083,364.511a.461.461,0,0,1-.461.461h-3.388a.46.46,0,0,1-.457-.461v-.919a.463.463,0,0,1,.457-.467h3.388a.464.464,0,0,1,.461.467Z" transform="translate(-337.246 -302.595)"/><g transform="translate(1.563 3.909)"><rect class="e" width="41.182" height="54.591" transform="translate(0.53 0.53)"/><path class="f" d="M363.18,257.385v53.53H323.058v-53.53H363.18m1.06-1.06H322v55.651H364.24V256.325Z" transform="translate(-321.998 -256.325)"/></g><g transform="translate(3.377 13.829)"><g transform="translate(0.002 3.737)"><rect class="g" width="24.858" height="26.698"/></g><g transform="translate(0 30.614)"><rect class="d" width="24.86" height="13.062"/></g><g transform="translate(25.828 3.737)"><rect class="h" width="12.805" height="12.548"/></g><g transform="translate(0.002)"><g transform="translate(7.171 0.69)"><rect class="h" width="5.539" height="0.829"/></g><g transform="translate(13.526 0.69)"><rect class="h" width="5.537" height="0.829"/></g><g transform="translate(19.881 0.69)"><rect class="h" width="5.54" height="0.829"/></g><g transform="translate(26.237 0.69)"><rect class="h" width="5.539" height="0.829"/></g><g transform="translate(32.593 0.69)"><rect class="h" width="5.538" height="0.829"/></g><rect class="g" width="5.856" height="2.206"/></g><g transform="translate(1.915 32.44)"><g transform="translate(0.325)"><rect class="h" width="17.226" height="0.859"/></g><g transform="translate(0.325 1.839)"><rect class="l" width="19.044" height="0.646"/></g><g transform="translate(0.145 3.343)"><rect class="l" width="13.746" height="0.644"/></g><g transform="translate(0 5.881)"><rect class="h" width="8.377" height="2.29"/></g><g transform="translate(1.896 6.702)"><rect class="k" width="4.587" height="0.646"/></g></g><g transform="translate(27.697 6.277)"><rect class="k" width="7.999" height="0.857"/><g transform="translate(0 1.838)"><rect class="i" width="8.939" height="0.644"/></g><g transform="translate(0 3.343)"><rect class="i" width="7.558" height="0.644"/></g><g transform="translate(0 5.878)"><rect class="k" width="7.016" height="2.291"/></g><g transform="translate(1.896 6.703)"><rect class="h" width="3.225" height="0.643"/></g></g><g transform="translate(25.783 30.614)"><rect class="d" width="12.851" height="13.062"/></g><g transform="translate(27.697 32.44)"><g transform="translate(0.211)"><rect class="h" width="7.39" height="0.859"/></g><g transform="translate(0.211 1.839)"><rect class="l" width="9.198" height="0.646"/></g><g transform="translate(0.149 3.343)"><rect class="l" width="7.342" height="0.644"/></g><g transform="translate(0 5.881)"><rect class="h" width="7.016" height="2.29"/></g><g transform="translate(1.896 6.702)"><rect class="k" width="3.225" height="0.646"/></g></g><g transform="translate(25.783 17.373)"><rect class="m" width="12.851" height="13.062"/></g></g><g transform="translate(2.599 4.972)"><path class="i" d="M364.1,258.331H323.951v7.083H364.1v-7.083Z" transform="translate(-323.951 -258.329)"/><g transform="translate(0.95 1.276)"><path class="j" d="M327.006,261.369a.632.632,0,1,1-.632-.632A.632.632,0,0,1,327.006,261.369Z" transform="translate(-325.742 -260.737)"/><path class="j" d="M330.505,261.369a.631.631,0,1,1-.631-.632A.63.63,0,0,1,330.505,261.369Z" transform="translate(-327.387 -260.737)"/><path class="j" d="M334,261.369a.632.632,0,1,1-.631-.632A.63.63,0,0,1,334,261.369Z" transform="translate(-329.03 -260.737)"/></g><rect class="k" width="21.736" height="2.742" transform="translate(8.593 3.424)"/><g transform="translate(0.818 3.684)"><path class="j" d="M326.487,267.266l-.994-.994.994-.993.368.368-.625.625.625.625Z" transform="translate(-325.494 -265.279)"/><g transform="translate(0.588 0.732)"><rect class="j" width="1.838" height="0.523"/></g></g><g transform="translate(4.588 3.684)"><g transform="translate(1.061)"><path class="j" d="M334.978,267.266l-.37-.369.626-.625-.626-.625.37-.368.992.993Z" transform="translate(-334.607 -265.279)"/></g><g transform="translate(0 0.732)"><rect class="j" width="1.836" height="0.523"/></g></g><rect class="h" width="8.008" height="2.729" transform="translate(30.94 3.424)"/></g></g></g><g transform="translate(221.418 161.011)"><path class="n" d="M391.208,215.429v5.745H379.633V209.6h5.743" transform="translate(-379.633 -209.599)"/><g transform="translate(6.6 0.001)"><path class="n" d="M398.682,212.742V209.6H395.54" transform="translate(-393.706 -209.6)"/><line class="n" x1="4.547" y2="4.547" transform="translate(0 0.429)"/></g></g></g></svg>